<?xml version="1.0" encoding="UTF-8" standalone="no"?>
<!DOCTYPE svg PUBLIC "-//W3C//DTD SVG 1.1//EN" "http://www.w3.org/Graphics/SVG/1.1/DTD/svg11.dtd">
<svg width="100%" height="100%" viewBox="0 0 3300 2200" version="1.1" xmlns="http://www.w3.org/2000/svg" xmlns:xlink="http://www.w3.org/1999/xlink" xml:space="preserve" xmlns:serif="http://www.serif.com/" style="fill-rule:evenodd;clip-rule:evenodd;">
    <g id="Notes">
        <rect id="artboard" x="0" y="0" width="3300" height="2200" style="fill:white;"/>
        <path d="M263,292L3036,292" style="fill:none;fill-rule:nonzero;stroke:black;stroke-width:0.5px;"/>
        <g transform="matrix(1,0,0,1,263,322)">
            <text x="0px" y="0px" style="font-family:'SFProDisplay-Bold', 'SF Pro Display';font-weight:700;font-size:16px;">W<tspan x="14.508px " y="0px ">e</tspan>ight/Scale V<tspan x="111.125px " y="0px ">a</tspan>riations</text>
        </g>
        <g transform="matrix(1,0,0,1,559.711,322)">
            <text x="-30.398px" y="0px" style="font-family:'SFProDisplay-Regular', 'SF Pro Display';font-size:16px;">Ultr<tspan x="-6.398px " y="0px ">a</tspan>light</text>
        </g>
        <g transform="matrix(1,0,0,1,856.422,322)">
            <text x="-14.809px" y="0px" style="font-family:'SFProDisplay-Regular', 'SF Pro Display';font-size:16px;">Thin</text>
        </g>
        <g transform="matrix(1,0,0,1,1153.13,322)">
            <text x="-16.945px" y="0px" style="font-family:'SFProDisplay-Regular', 'SF Pro Display';font-size:16px;">Light</text>
        </g>
        <g transform="matrix(1,0,0,1,1449.84,322)">
            <text x="-25.613px" y="0px" style="font-family:'SFProDisplay-Regular', 'SF Pro Display';font-size:16px;">Regular</text>
        </g>
        <g transform="matrix(1,0,0,1,1746.56,322)">
            <text x="-27.449px" y="0px" style="font-family:'SFProDisplay-Regular', 'SF Pro Display';font-size:16px;">Medium</text>
        </g>
        <g transform="matrix(1,0,0,1,2043.27,322)">
            <text x="-31.645px" y="0px" style="font-family:'SFProDisplay-Regular', 'SF Pro Display';font-size:16px;">Semibold</text>
        </g>
        <g transform="matrix(1,0,0,1,2339.98,322)">
            <text x="-15.145px" y="0px" style="font-family:'SFProDisplay-Regular', 'SF Pro Display';font-size:16px;">Bold</text>
        </g>
        <g transform="matrix(1,0,0,1,2636.69,322)">
            <text x="-21.461px" y="0px" style="font-family:'SFProDisplay-Regular', 'SF Pro Display';font-size:16px;">Heavy</text>
        </g>
        <g transform="matrix(1,0,0,1,2933.4,322)">
            <text x="-18.375px" y="0px" style="font-family:'SFProDisplay-Regular', 'SF Pro Display';font-size:16px;">Black</text>
        </g>
        <path d="M263,1903L3036,1903" style="fill:none;fill-rule:nonzero;stroke:black;stroke-width:0.5px;"/>
        <g transform="matrix(1,0,0,1,263,1933)">
            <path d="M9.248,0.83C13.555,0.83 17.139,-2.744 17.139,-7.051C17.139,-11.357 13.545,-14.932 9.238,-14.932C4.941,-14.932 1.367,-11.357 1.367,-7.051C1.367,-2.744 4.951,0.83 9.248,0.83ZM9.248,-0.654C5.703,-0.654 2.871,-3.496 2.871,-7.051C2.871,-10.605 5.693,-13.447 9.238,-13.447C12.793,-13.447 15.635,-10.605 15.645,-7.051C15.654,-3.496 12.803,-0.654 9.248,-0.654ZM9.229,-3.428C9.697,-3.428 9.971,-3.74 9.971,-4.258L9.971,-6.318L12.197,-6.318C12.695,-6.318 13.037,-6.572 13.037,-7.041C13.037,-7.52 12.715,-7.783 12.197,-7.783L9.971,-7.783L9.971,-10.01C9.971,-10.527 9.697,-10.85 9.229,-10.85C8.76,-10.85 8.506,-10.508 8.506,-10.01L8.506,-7.783L6.299,-7.783C5.781,-7.783 5.449,-7.52 5.449,-7.041C5.449,-6.572 5.801,-6.318 6.299,-6.318L8.506,-6.318L8.506,-4.258C8.506,-3.76 8.76,-3.428 9.229,-3.428Z" style="fill-rule:nonzero;"/>
        </g>
        <g transform="matrix(1,0,0,1,281.506,1933)">
            <path d="M11.709,2.91C17.158,2.91 21.67,-1.602 21.67,-7.051C21.67,-12.49 17.148,-17.012 11.699,-17.012C6.26,-17.012 1.748,-12.49 1.748,-7.051C1.748,-1.602 6.27,2.91 11.709,2.91ZM11.709,1.25C7.1,1.25 3.418,-2.441 3.418,-7.051C3.418,-11.65 7.09,-15.352 11.699,-15.352C16.309,-15.352 20,-11.65 20.01,-7.051C20.02,-2.441 16.318,1.25 11.709,1.25ZM11.69,-2.412C12.207,-2.412 12.52,-2.773 12.52,-3.34L12.52,-6.23L15.576,-6.23C16.123,-6.23 16.504,-6.514 16.504,-7.031C16.504,-7.559 16.143,-7.861 15.576,-7.861L12.52,-7.861L12.52,-10.928C12.52,-11.504 12.207,-11.855 11.69,-11.855C11.172,-11.855 10.879,-11.484 10.879,-10.928L10.879,-7.861L7.832,-7.861C7.266,-7.861 6.895,-7.559 6.895,-7.031C6.895,-6.514 7.285,-6.23 7.832,-6.23L10.879,-6.23L10.879,-3.34C10.879,-2.793 11.172,-2.412 11.69,-2.412Z" style="fill-rule:nonzero;"/>
        </g>
        <g transform="matrix(1,0,0,1,304.924,1933)">
            <path d="M14.971,5.674C21.934,5.674 27.695,-0.078 27.695,-7.041C27.695,-14.004 21.924,-19.756 14.961,-19.756C8.008,-19.756 2.256,-14.004 2.256,-7.041C2.256,-0.078 8.018,5.674 14.971,5.674ZM14.971,3.857C8.936,3.857 4.082,-1.006 4.082,-7.041C4.082,-13.076 8.926,-17.94 14.961,-17.94C21.006,-17.94 25.859,-13.076 25.869,-7.041C25.879,-1.006 21.016,3.857 14.971,3.857ZM14.951,-1.064C15.518,-1.064 15.869,-1.455 15.869,-2.061L15.869,-6.133L20.107,-6.133C20.693,-6.133 21.113,-6.465 21.113,-7.021C21.113,-7.598 20.723,-7.939 20.107,-7.939L15.869,-7.939L15.869,-12.188C15.869,-12.803 15.518,-13.193 14.951,-13.193C14.385,-13.193 14.063,-12.783 14.063,-12.188L14.063,-7.939L9.834,-7.939C9.219,-7.939 8.809,-7.598 8.809,-7.021C8.809,-6.465 9.238,-6.133 9.834,-6.133L14.063,-6.133L14.063,-2.061C14.063,-1.475 14.385,-1.064 14.951,-1.064Z" style="fill-rule:nonzero;"/>
        </g>
        <g transform="matrix(1,0,0,1,263,1953)">
            <text x="0px" y="0px" style="font-family:'SFProDisplay-Bold', 'SF Pro Display';font-weight:700;font-size:16px;">Design V<tspan x="63.789px " y="0px ">a</tspan>riations</text>
        </g>
        <g transform="matrix(1,0,0,1,263,1971)">
            <text x="0px" y="0px" style="font-family:'SFProDisplay-Regular', 'SF Pro Display';font-size:16px;">Symbols ar<tspan x="74.047px " y="0px ">e</tspan> suppor<tspan x="132.711px 137.297px " y="0px 0px ">te</tspan>d in up t<tspan x="197.695px " y="0px ">o</tspan> nine weights and thr<tspan x="343.523px " y="0px ">e</tspan>e scales.</text>
        </g>
        <g transform="matrix(1,0,0,1,263,1989)">
            <text x="0px" y="0px" style="font-family:'SFProDisplay-Regular', 'SF Pro Display';font-size:16px;">F<tspan x="8.133px " y="0px ">o</tspan>r optimal lay<tspan x="96.477px " y="0px ">o</tspan>ut with t<tspan x="157.523px 165.563px " y="0px 0px ">ex</tspan>t and other symbols,<tspan x="307.547px 310.828px 318.32px 326.516px 331.758px " y="0px 0px 0px 0px 0px "> vert</tspan>ically align</text>
        </g>
        <g transform="matrix(1,0,0,1,263,2007)">
            <text x="0px" y="0px" style="font-family:'SFProDisplay-Regular', 'SF Pro Display';font-size:16px;">symbols with the adjacent t<tspan x="181.305px 189.344px " y="0px 0px ">ex</tspan>t.</text>
        </g>
        <rect x="776" y="1919" width="3" height="14" style="fill:rgb(0,174,239);fill-opacity:0.4;"/>
        <g transform="matrix(1,0,0,1,779,1933)">
            <path d="M10.527,0L12.373,0L7.178,-14.092L5.439,-14.092L0.244,0L2.09,0L3.506,-4.033L9.111,-4.033L10.527,0ZM6.279,-11.953L6.338,-11.953L8.594,-5.527L4.023,-5.527L6.279,-11.953Z" style="fill-rule:nonzero;"/>
        </g>
        <rect x="791.617" y="1919" width="3" height="14" style="fill:rgb(0,174,239);fill-opacity:0.4;"/>
        <g transform="matrix(1,0,0,1,776,1953)">
            <text x="0px" y="0px" style="font-family:'SFProDisplay-Bold', 'SF Pro Display';font-weight:700;font-size:16px;">M<tspan x="13.641px 22.398px 27.945px " y="0px 0px 0px ">arg</tspan>ins</text>
        </g>
        <g transform="matrix(1,0,0,1,776,1971)">
            <text x="0px" y="0px" style="font-family:'SFProDisplay-Regular', 'SF Pro Display';font-size:16px;">L<tspan x="8.156px " y="0px ">e</tspan>ading and tr<tspan x="95.203px " y="0px ">a</tspan>iling mar<tspan x="158.953px " y="0px ">g</tspan>ins on the left and right side of each symbol</text>
        </g>
        <g transform="matrix(1,0,0,1,776,1989)">
            <text x="0px" y="0px" style="font-family:'SFProDisplay-Regular', 'SF Pro Display';font-size:16px;">can be adjust<tspan x="88.719px " y="0px ">e</tspan>d b<tspan x="117.688px " y="0px ">y</tspan> modifying the width of the blue r<tspan x="341.977px " y="0px ">e</tspan>ct<tspan x="362.852px " y="0px ">a</tspan>ngles.</text>
        </g>
        <g transform="matrix(1,0,0,1,776,2007)">
            <text x="0px" y="0px" style="font-family:'SFProDisplay-Regular', 'SF Pro Display';font-size:16px;">Modifications ar<tspan x="106.391px " y="0px ">e</tspan> aut<tspan x="138.914px " y="0px ">o</tspan>matically applied pr<tspan x="275.82px " y="0px ">o</tspan>por<tspan x="306.836px " y="0px ">t</tspan>ionally t<tspan x="362.055px " y="0px ">o</tspan> all</text>
        </g>
        <g transform="matrix(1,0,0,1,776,2025)">
            <text x="0px" y="0px" style="font-family:'SFProDisplay-Regular', 'SF Pro Display';font-size:16px;">scales and weights.</text>
        </g>
        <g transform="matrix(1,0,0,1,1289,1933)">
            <path d="M2.832,3.115L4.375,4.658C5.225,5.488 6.191,5.42 7.061,4.463L17.275,-6.66C17.705,-6.367 18.096,-6.377 18.565,-6.475L19.609,-6.689L20.303,-5.996L20.254,-5.479C20.186,-4.951 20.352,-4.531 20.85,-4.033L21.66,-3.223C22.168,-2.715 22.822,-2.686 23.301,-3.164L26.553,-6.416C27.031,-6.895 27.012,-7.549 26.504,-8.057L25.684,-8.877C25.186,-9.375 24.775,-9.551 24.238,-9.473L23.711,-9.414L23.057,-10.078L23.34,-11.221C23.486,-11.787 23.34,-12.256 22.715,-12.861L20.303,-15.254C16.758,-18.779 12.227,-18.672 9.111,-15.537C8.691,-15.107 8.643,-14.522 8.916,-14.092C9.15,-13.721 9.629,-13.496 10.273,-13.662C11.787,-14.043 13.301,-13.926 14.785,-12.92L14.16,-11.338C13.926,-10.752 13.945,-10.273 14.18,-9.834L3.018,0.439C2.08,1.309 1.973,2.256 2.832,3.115ZM10.674,-15.147C13.34,-17.139 16.65,-16.826 19.053,-14.414L21.68,-11.807C21.914,-11.572 21.943,-11.387 21.885,-11.094L21.504,-9.531L23.076,-7.959L24.043,-8.047C24.326,-8.076 24.414,-8.057 24.639,-7.832L25.264,-7.207L22.51,-4.463L21.885,-5.078C21.66,-5.303 21.641,-5.4 21.67,-5.684L21.758,-6.641L20.195,-8.203L18.574,-7.891C18.291,-7.832 18.145,-7.832 17.91,-8.076L15.732,-10.254C15.508,-10.488 15.479,-10.625 15.605,-10.947L16.553,-13.223C14.951,-14.756 12.842,-15.605 10.801,-14.951C10.713,-14.922 10.645,-14.941 10.615,-14.98C10.586,-15.029 10.586,-15.078 10.674,-15.147ZM4.102,2.412C3.613,1.914 3.789,1.611 4.121,1.309L15.078,-8.809L16.309,-7.578L6.152,3.35C5.85,3.682 5.469,3.779 5.068,3.379L4.102,2.412Z" style="fill-rule:nonzero;"/>
        </g>
        <g transform="matrix(1,0,0,1,1289,1953)">
            <text x="0px" y="0px" style="font-family:'SFProDisplay-Bold', 'SF Pro Display';font-weight:700;font-size:16px;">Expor<tspan x="42.367px " y="0px ">t</tspan>ing</text>
        </g>
        <g transform="matrix(1,0,0,1,1289,1971)">
            <text x="0px" y="0px" style="font-family:'SFProDisplay-Regular', 'SF Pro Display';font-size:16px;">Symbols should be outlined when e<tspan x="235.273px " y="0px ">x</tspan>por<tspan x="265.305px " y="0px ">t</tspan>ing t<tspan x="298.477px " y="0px ">o</tspan> ensur<tspan x="347.289px " y="0px ">e</tspan> the</text>
        </g>
        <g transform="matrix(1,0,0,1,1289,1989)">
            <text x="0px" y="0px" style="font-family:'SFProDisplay-Regular', 'SF Pro Display';font-size:16px;">design is pr<tspan x="75.586px " y="0px ">e</tspan>serv<tspan x="111.844px " y="0px ">e</tspan>d when submitting t<tspan x="251.008px " y="0px ">o</tspan> X<tspan x="272.391px " y="0px ">c</tspan>ode.</text>
        </g>
        <g id="template-version" transform="matrix(1,0,0,1,3036,1933)">
            <text x="-94.531px" y="0px" style="font-family:'SFProDisplay-Regular', 'SF Pro Display';font-size:16px;">T<tspan x="-87.344px " y="0px ">e</tspan>mplat<tspan x="-41.625px " y="0px ">e</tspan> v<tspan x="-23.594px -20.469px -13.766px " y="0px 0px 0px ">.1.</tspan>0</text>
        </g>
        <g transform="matrix(1,0,0,1,3036,1951)">
            <text x="-172.023px" y="0px" style="font-family:'SFProDisplay-Regular', 'SF Pro Display';font-size:16px;">Gener<tspan x="-131.125px -123.094px -118.508px " y="0px 0px 0px ">ate</tspan>d fr<tspan x="-88.773px " y="0px ">o</tspan>m squar<tspan x="-26.914px " y="0px ">e</tspan>.fill</text>
        </g>
        <g transform="matrix(1,0,0,1,3036,1969)">
            <text x="-143.086px" y="0px" style="font-family:'SFProDisplay-Regular', 'SF Pro Display';font-size:16px;">T<tspan x="-135.664px " y="0px ">y</tspan>peset at 100 points</text>
        </g>
        <g transform="matrix(1,0,0,1,263,726)">
            <text x="0px" y="0px" style="font-family:'SFProDisplay-Regular', 'SF Pro Display';font-size:16px;">Small</text>
        </g>
        <g transform="matrix(1,0,0,1,263,1156)">
            <text x="0px" y="0px" style="font-family:'SFProDisplay-Regular', 'SF Pro Display';font-size:16px;">Medium</text>
        </g>
        <g transform="matrix(1,0,0,1,263,1586)">
            <text x="0px" y="0px" style="font-family:'SFProDisplay-Regular', 'SF Pro Display';font-size:16px;">Lar<tspan x="20.961px " y="0px ">g</tspan>e</text>
        </g>
    </g>
    <g id="Guides">
        <g id="H-reference" transform="matrix(1,0,0,1,339,696)">
            <path d="M54.932,0L57.666,0L30.566,-70.459L28.076,-70.459L0.977,0L3.662,0L12.94,-24.463L45.703,-24.463L54.932,0ZM29.199,-67.09L29.443,-67.09L44.824,-26.709L13.818,-26.709L29.199,-67.09Z" style="fill:rgb(39,170,225);fill-rule:nonzero;"/>
        </g>
        <path id="Baseline-S" d="M263,696L3036,696" style="fill:none;fill-rule:nonzero;stroke:rgb(39,170,225);stroke-width:0.58px;"/>
        <path id="Capline-S" d="M263,625.541L3036,625.541" style="fill:none;fill-rule:nonzero;stroke:rgb(39,170,225);stroke-width:0.58px;"/>
        <g id="H-reference1" serif:id="H-reference" transform="matrix(1,0,0,1,339,1126)">
            <path d="M54.932,0L57.666,0L30.566,-70.459L28.076,-70.459L0.977,0L3.662,0L12.94,-24.463L45.703,-24.463L54.932,0ZM29.199,-67.09L29.443,-67.09L44.824,-26.709L13.818,-26.709L29.199,-67.09Z" style="fill:rgb(39,170,225);fill-rule:nonzero;"/>
        </g>
        <path id="Baseline-M" d="M263,1126L3036,1126" style="fill:none;fill-rule:nonzero;stroke:rgb(39,170,225);stroke-width:0.58px;"/>
        <path id="Capline-M" d="M263,1055.54L3036,1055.54" style="fill:none;fill-rule:nonzero;stroke:rgb(39,170,225);stroke-width:0.58px;"/>
        <g id="H-reference2" serif:id="H-reference" transform="matrix(1,0,0,1,339,1556)">
            <path d="M54.932,0L57.666,0L30.566,-70.459L28.076,-70.459L0.977,0L3.662,0L12.94,-24.463L45.703,-24.463L54.932,0ZM29.199,-67.09L29.443,-67.09L44.824,-26.709L13.818,-26.709L29.199,-67.09Z" style="fill:rgb(39,170,225);fill-rule:nonzero;"/>
        </g>
        <path id="Baseline-L" d="M263,1556L3036,1556" style="fill:none;fill-rule:nonzero;stroke:rgb(39,170,225);stroke-width:0.58px;"/>
        <path id="Capline-L" d="M263,1485.54L3036,1485.54" style="fill:none;fill-rule:nonzero;stroke:rgb(39,170,225);stroke-width:0.58px;"/>
        <rect id="left-margin" x="1392.45" y="1030.79" width="12.451" height="119.336" style="fill:rgb(0,174,239);fill-opacity:0.4;"/>
        <rect id="right-margin" x="1494.79" y="1030.79" width="12.451" height="119.336" style="fill:rgb(0,174,239);fill-opacity:0.4;"/>
    </g>
    <g id="Symbols">
        <g id="Black-L" transform="matrix(1,0,0,1,2855.62,1556)">
            <path d="M39.99,26.514L115.576,26.514C130.811,26.514 139.502,17.871 139.502,2.686L139.502,-73.096C139.502,-88.281 130.811,-96.875 115.576,-96.875L39.99,-96.875C24.756,-96.875 16.064,-88.281 16.064,-73.096L16.064,2.686C16.064,17.871 24.756,26.514 39.99,26.514Z" style="fill-rule:nonzero;"/>
        </g>
        <g id="Heavy-L" transform="matrix(1,0,0,1,2559.93,1556)">
            <path d="M38.818,25.488L114.697,25.488C129.346,25.488 137.451,17.432 137.451,2.881L137.451,-73.242C137.451,-87.793 129.346,-95.85 114.697,-95.85L38.818,-95.85C24.219,-95.85 16.064,-87.793 16.064,-73.242L16.064,2.881C16.064,17.432 24.219,25.488 38.818,25.488Z" style="fill-rule:nonzero;"/>
        </g>
        <g id="Semibold-L" transform="matrix(1,0,0,1,1968.44,1556)">
            <path d="M36.621,23.584L113.037,23.584C126.514,23.584 133.594,16.504 133.594,3.174L133.594,-73.535C133.594,-86.816 126.514,-93.945 113.037,-93.945L36.621,-93.945C23.193,-93.945 16.064,-86.865 16.064,-73.535L16.064,3.174C16.064,16.553 23.193,23.584 36.621,23.584Z" style="fill-rule:nonzero;"/>
        </g>
        <g id="Medium-L" transform="matrix(1,0,0,1,1672.31,1556)">
            <path d="M35.938,22.998L112.5,22.998C125.635,22.998 132.422,16.211 132.422,3.271L132.422,-73.633C132.422,-86.523 125.635,-93.311 112.5,-93.311L35.938,-93.311C22.9,-93.311 16.064,-86.572 16.064,-73.633L16.064,3.271C16.064,16.26 22.9,22.998 35.938,22.998Z" style="fill-rule:nonzero;"/>
        </g>
        <g id="Thin-L" transform="matrix(1,0,0,1,784.889,1556)">
            <path d="M32.666,20.361L110.352,20.361C121.24,20.361 127.002,14.453 127.002,3.76L127.002,-73.975C127.002,-84.717 121.24,-90.576 110.352,-90.576L32.666,-90.576C21.777,-90.576 16.064,-84.863 16.064,-73.975L16.064,3.76C16.064,14.648 21.777,20.361 32.666,20.361Z" style="fill-rule:nonzero;"/>
        </g>
        <g id="Ultralight-L" transform="matrix(1,0,0,1,488.739,1556)">
            <path d="M31.982,19.775L109.961,19.775C120.312,19.775 125.879,14.063 125.879,3.857L125.879,-74.072C125.879,-84.277 120.312,-89.99 109.961,-89.99L31.982,-89.99C21.582,-89.99 16.064,-84.473 16.064,-74.072L16.064,3.857C16.064,14.258 21.582,19.775 31.982,19.775Z" style="fill-rule:nonzero;"/>
        </g>
        <g id="Black-M" transform="matrix(1,0,0,1,2872.19,1126)">
            <path d="M31.982,13.574L90.43,13.574C102.686,13.574 109.961,6.299 109.961,-5.957L109.961,-64.404C109.961,-76.66 102.686,-83.936 90.43,-83.936L31.982,-83.936C19.727,-83.936 12.451,-76.66 12.451,-64.404L12.451,-5.957C12.451,6.299 19.727,13.574 31.982,13.574Z" style="fill-rule:nonzero;"/>
        </g>
        <g id="Heavy-M" transform="matrix(1,0,0,1,2576.39,1126)">
            <path d="M31.006,12.647L89.648,12.647C101.416,12.647 108.154,5.908 108.154,-5.811L108.154,-64.551C108.154,-76.269 101.416,-83.057 89.648,-83.057L31.006,-83.057C19.238,-83.057 12.451,-76.318 12.451,-64.551L12.451,-5.811C12.451,5.908 19.238,12.647 31.006,12.647Z" style="fill-rule:nonzero;"/>
        </g>
        <g id="Semibold-M" transform="matrix(1,0,0,1,1984.65,1126)">
            <path d="M29.102,10.986L88.086,10.986C98.975,10.986 104.785,5.176 104.785,-5.566L104.785,-64.844C104.785,-75.586 98.975,-81.348 88.086,-81.348L29.102,-81.348C18.262,-81.348 12.451,-75.586 12.451,-64.844L12.451,-5.566C12.451,5.225 18.262,10.986 29.102,10.986Z" style="fill-rule:nonzero;"/>
        </g>
        <g id="Medium-M" transform="matrix(1,0,0,1,1688.47,1126)">
            <path d="M28.516,10.449L87.647,10.449C98.242,10.449 103.711,4.98 103.711,-5.469L103.711,-64.893C103.711,-75.342 98.242,-80.811 87.647,-80.811L28.516,-80.811C17.969,-80.811 12.451,-75.391 12.451,-64.893L12.451,-5.469C12.451,4.98 17.969,10.449 28.516,10.449Z" style="fill-rule:nonzero;"/>
        </g>
        <g id="Thin-M" transform="matrix(1,0,0,1,800.758,1126)">
            <path d="M25.635,8.057L85.742,8.057C94.385,8.057 98.877,3.467 98.877,-5.029L98.877,-65.234C98.877,-73.731 94.385,-78.369 85.742,-78.369L25.635,-78.369C16.992,-78.369 12.451,-73.877 12.451,-65.234L12.451,-5.029C12.451,3.564 16.992,8.057 25.635,8.057Z" style="fill-rule:nonzero;"/>
        </g>
        <g id="Ultralight-M" transform="matrix(1,0,0,1,504.535,1126)">
            <path d="M25,7.568L85.352,7.568C93.506,7.568 97.9,3.125 97.9,-4.98L97.9,-65.283C97.9,-73.389 93.506,-77.832 85.352,-77.832L25,-77.832C16.797,-77.832 12.451,-73.486 12.451,-65.283L12.451,-4.98C12.451,3.223 16.797,7.568 25,7.568Z" style="fill-rule:nonzero;"/>
        </g>
        <g id="Black-S" transform="matrix(1,0,0,1,2885.5,696)">
            <path d="M25,2.93L70.801,2.93C80.371,2.93 86.035,-2.734 86.035,-12.305L86.035,-58.106C86.035,-67.676 80.371,-73.34 70.801,-73.34L25,-73.34C15.43,-73.34 9.766,-67.676 9.766,-58.106L9.766,-12.305C9.766,-2.734 15.43,2.93 25,2.93Z" style="fill-rule:nonzero;"/>
        </g>
        <g id="Heavy-S" transform="matrix(1,0,0,1,2589.4,696)">
            <path d="M24.365,2.344L70.264,2.344C79.541,2.344 84.815,-2.979 84.815,-12.207L84.815,-58.203C84.815,-67.432 79.541,-72.754 70.264,-72.754L24.365,-72.754C15.088,-72.754 9.766,-67.432 9.766,-58.203L9.766,-12.207C9.766,-2.979 15.088,2.344 24.365,2.344Z" style="fill-rule:nonzero;"/>
        </g>
        <g id="Semibold-S" transform="matrix(1,0,0,1,1997.1,696)">
            <path d="M23.096,1.172L69.19,1.172C77.93,1.172 82.568,-3.369 82.568,-12.012L82.568,-58.398C82.568,-67.041 77.93,-71.582 69.19,-71.582L23.096,-71.582C14.404,-71.582 9.766,-67.041 9.766,-58.398L9.766,-12.012C9.766,-3.369 14.404,1.172 23.096,1.172Z" style="fill-rule:nonzero;"/>
        </g>
        <g id="Medium-S" transform="matrix(1,0,0,1,1700.75,696)">
            <path d="M22.705,0.83L68.897,0.83C77.441,0.83 81.836,-3.516 81.836,-11.963L81.836,-58.447C81.836,-66.894 77.441,-71.24 68.897,-71.24L22.705,-71.24C14.209,-71.24 9.766,-66.894 9.766,-58.447L9.766,-11.963C9.766,-3.516 14.209,0.83 22.705,0.83Z" style="fill-rule:nonzero;"/>
        </g>
        <g id="Thin-S" transform="matrix(1,0,0,1,812.599,696)">
            <path d="M20.313,-1.123L67.334,-1.123C74.268,-1.123 77.881,-4.785 77.881,-11.621L77.881,-58.691C77.881,-65.576 74.268,-69.238 67.334,-69.238L20.313,-69.238C13.379,-69.238 9.766,-65.625 9.766,-58.691L9.766,-11.621C9.766,-4.688 13.379,-1.123 20.313,-1.123Z" style="fill-rule:nonzero;"/>
        </g>
        <g id="Ultralight-S" transform="matrix(1,0,0,1,516.352,696)">
            <path d="M19.775,-1.563L66.992,-1.563C73.535,-1.563 76.953,-5.127 76.953,-11.523L76.953,-58.789C76.953,-65.234 73.535,-68.75 66.992,-68.75L19.775,-68.75C13.232,-68.75 9.766,-65.283 9.766,-58.789L9.766,-11.523C9.766,-5.029 13.232,-1.563 19.775,-1.563Z" style="fill-rule:nonzero;"/>
        </g>
        <g id="Bold-L" transform="matrix(0.264078,0,0,0.264078,2073.38,1257.6)">
            <path d="M800.513,895.9C784.218,927.037 775,962.45 775,1000C775,1016.5 776.78,1032.59 780.158,1048.08L755.93,1054.57L761.107,1073.89L785.29,1067.41C801.254,1118.24 834.786,1161.32 878.756,1189.53L866.34,1211.03L883.66,1221.03L896.054,1199.57C927.153,1215.81 962.512,1225 1000,1225C1016.7,1225 1032.98,1223.18 1048.65,1219.72L1055.05,1243.6L1074.36,1238.42L1067.96,1214.54C1118.76,1198.44 1161.78,1164.78 1189.88,1120.7L1211.51,1133.19L1221.51,1115.87L1199.87,1103.37C1215.92,1072.41 1225,1037.26 1225,1000C1225,983.183 1223.15,966.794 1219.64,951.026L1243.72,944.576C1247.83,962.55 1250,981.26 1250,1000.47C1250,1138.45 1137.98,1250.47 1000,1250.47C862.021,1250.47 750,1138.45 750,1000.47C750,958.225 760.502,918.411 779.037,883.501L800.513,895.9ZM1043.98,1202.31C1029.81,1205.38 1015.09,1207 1000,1207C965.79,1207 933.507,1198.68 905.064,1183.96L996.589,1025.43L1043.98,1202.31ZM1174.27,1111.69C1148.56,1151.7 1109.45,1182.3 1063.3,1197.12L1015.91,1020.26L1174.27,1111.69ZM887.767,1173.92C847.864,1148.1 817.392,1108.93 802.699,1062.75L979.269,1015.44L887.767,1173.92ZM1202.24,955.691C1205.36,969.968 1207,984.793 1207,1000C1207,1033.98 1198.79,1066.06 1184.26,1094.36L1025.91,1002.94L1202.24,955.691ZM974.092,996.116L797.571,1043.41C794.577,1029.41 793.002,1014.89 793.002,1000C793.002,965.728 801.349,933.39 816.119,904.91L974.092,996.116ZM984.092,978.796L826.175,887.622C851.934,847.881 890.948,817.514 936.935,802.801L984.092,978.796ZM956.257,797.641C970.36,794.602 984.995,793.002 1000,793.002C1034.04,793.002 1066.17,801.237 1094.52,815.822L1003.41,973.619L956.257,797.641ZM1301,887.274C1283.84,823.23 1241.94,768.625 1184.52,735.473L1059.52,951.979L1301,887.274ZM932.269,785.39C881.634,801.377 838.712,834.804 810.566,878.611L789.115,866.225C820.595,816.906 868.898,779.344 925.909,761.653L932.269,785.39ZM951.592,780.23L945.234,756.501C962.862,752.555 981.19,750.473 1000,750.473C1041.79,750.473 1081.19,760.747 1115.83,778.906L1103.53,800.214C1072.53,784.105 1037.32,775 1000,775C983.384,775 967.186,776.805 951.592,780.23Z"/>
        </g>
        <g id="Bold-M" transform="matrix(0.194192,0,0,0.194192,2144.49,897.211)">
            <path d="M800.513,895.9C784.218,927.037 775,962.45 775,1000C775,1016.5 776.78,1032.59 780.158,1048.08L755.93,1054.57L761.107,1073.89L785.29,1067.41C801.254,1118.24 834.786,1161.32 878.756,1189.53L866.34,1211.03L883.66,1221.03L896.054,1199.57C927.153,1215.81 962.512,1225 1000,1225C1016.7,1225 1032.98,1223.18 1048.65,1219.72L1055.05,1243.6L1074.36,1238.42L1067.96,1214.54C1118.76,1198.44 1161.78,1164.78 1189.88,1120.7L1211.51,1133.19L1221.51,1115.87L1199.87,1103.37C1215.92,1072.41 1225,1037.26 1225,1000C1225,983.183 1223.15,966.794 1219.64,951.026L1243.72,944.576C1247.83,962.55 1250,981.26 1250,1000.47C1250,1138.45 1137.98,1250.47 1000,1250.47C862.021,1250.47 750,1138.45 750,1000.47C750,958.225 760.502,918.411 779.037,883.501L800.513,895.9ZM1043.98,1202.31C1029.81,1205.38 1015.09,1207 1000,1207C965.79,1207 933.507,1198.68 905.064,1183.96L996.589,1025.43L1043.98,1202.31ZM1174.27,1111.69C1148.56,1151.7 1109.45,1182.3 1063.3,1197.12L1015.91,1020.26L1174.27,1111.69ZM887.767,1173.92C847.864,1148.1 817.392,1108.93 802.699,1062.75L979.269,1015.44L887.767,1173.92ZM1202.24,955.691C1205.36,969.968 1207,984.793 1207,1000C1207,1033.98 1198.79,1066.06 1184.26,1094.36L1025.91,1002.94L1202.24,955.691ZM974.092,996.116L797.571,1043.41C794.577,1029.41 793.002,1014.89 793.002,1000C793.002,965.728 801.349,933.39 816.119,904.91L974.092,996.116ZM984.092,978.796L826.175,887.622C851.934,847.881 890.948,817.514 936.935,802.801L984.092,978.796ZM956.257,797.641C970.36,794.602 984.995,793.002 1000,793.002C1034.04,793.002 1066.17,801.237 1094.52,815.822L1003.41,973.619L956.257,797.641ZM1301,887.274C1283.84,823.23 1241.94,768.625 1184.52,735.473L1059.52,951.979L1301,887.274ZM932.269,785.39C881.634,801.377 838.712,834.804 810.566,878.611L789.115,866.225C820.595,816.906 868.898,779.344 925.909,761.653L932.269,785.39ZM951.592,780.23L945.234,756.501C962.862,752.555 981.19,750.473 1000,750.473C1041.79,750.473 1081.19,760.747 1115.83,778.906L1103.53,800.214C1072.53,784.105 1037.32,775 1000,775C983.384,775 967.186,776.805 951.592,780.23Z"/>
        </g>
        <g id="Bold-S" transform="matrix(0.157282,0,0,0.157282,2180.39,504.303)">
            <path d="M800.513,895.9C784.218,927.037 775,962.45 775,1000C775,1016.5 776.78,1032.59 780.158,1048.08L755.93,1054.57L761.107,1073.89L785.29,1067.41C801.254,1118.24 834.786,1161.32 878.756,1189.53L866.34,1211.03L883.66,1221.03L896.054,1199.57C927.153,1215.81 962.512,1225 1000,1225C1016.7,1225 1032.98,1223.18 1048.65,1219.72L1055.05,1243.6L1074.36,1238.42L1067.96,1214.54C1118.76,1198.44 1161.78,1164.78 1189.88,1120.7L1211.51,1133.19L1221.51,1115.87L1199.87,1103.37C1215.92,1072.41 1225,1037.26 1225,1000C1225,983.183 1223.15,966.794 1219.64,951.026L1243.72,944.576C1247.83,962.55 1250,981.26 1250,1000.47C1250,1138.45 1137.98,1250.47 1000,1250.47C862.021,1250.47 750,1138.45 750,1000.47C750,958.225 760.502,918.411 779.037,883.501L800.513,895.9ZM1043.98,1202.31C1029.81,1205.38 1015.09,1207 1000,1207C965.79,1207 933.507,1198.68 905.064,1183.96L996.589,1025.43L1043.98,1202.31ZM1174.27,1111.69C1148.56,1151.7 1109.45,1182.3 1063.3,1197.12L1015.91,1020.26L1174.27,1111.69ZM887.767,1173.92C847.864,1148.1 817.392,1108.93 802.699,1062.75L979.269,1015.44L887.767,1173.92ZM1202.24,955.691C1205.36,969.968 1207,984.793 1207,1000C1207,1033.98 1198.79,1066.06 1184.26,1094.36L1025.91,1002.94L1202.24,955.691ZM974.092,996.116L797.571,1043.41C794.577,1029.41 793.002,1014.89 793.002,1000C793.002,965.728 801.349,933.39 816.119,904.91L974.092,996.116ZM984.092,978.796L826.175,887.622C851.934,847.881 890.948,817.514 936.935,802.801L984.092,978.796ZM956.257,797.641C970.36,794.602 984.995,793.002 1000,793.002C1034.04,793.002 1066.17,801.237 1094.52,815.822L1003.41,973.619L956.257,797.641ZM1301,887.274C1283.84,823.23 1241.94,768.625 1184.52,735.473L1059.52,951.979L1301,887.274ZM932.269,785.39C881.634,801.377 838.712,834.804 810.566,878.611L789.115,866.225C820.595,816.906 868.898,779.344 925.909,761.653L932.269,785.39ZM951.592,780.23L945.234,756.501C962.862,752.555 981.19,750.473 1000,750.473C1041.79,750.473 1081.19,760.747 1115.83,778.906L1103.53,800.214C1072.53,784.105 1037.32,775 1000,775C983.384,775 967.186,776.805 951.592,780.23Z"/>
        </g>
        <g id="Light-L" transform="matrix(0.236893,0,0,0.236893,915.198,1286.55)">
            <path d="M800.513,895.9C784.218,927.037 775,962.45 775,1000C775,1016.5 776.78,1032.59 780.158,1048.08L755.93,1054.57L761.107,1073.89L785.29,1067.41C801.254,1118.24 834.786,1161.32 878.756,1189.53L866.34,1211.03L883.66,1221.03L896.054,1199.57C927.153,1215.81 962.512,1225 1000,1225C1016.7,1225 1032.98,1223.18 1048.65,1219.72L1055.05,1243.6L1074.36,1238.42L1067.96,1214.54C1118.76,1198.44 1161.78,1164.78 1189.88,1120.7L1211.51,1133.19L1221.51,1115.87L1199.87,1103.37C1215.92,1072.41 1225,1037.26 1225,1000C1225,983.183 1223.15,966.794 1219.64,951.026L1243.72,944.576C1247.83,962.55 1250,981.26 1250,1000.47C1250,1138.45 1137.98,1250.47 1000,1250.47C862.021,1250.47 750,1138.45 750,1000.47C750,958.225 760.502,918.411 779.037,883.501L800.513,895.9ZM1043.98,1202.31C1029.81,1205.38 1015.09,1207 1000,1207C965.79,1207 933.507,1198.68 905.064,1183.96L996.589,1025.43L1043.98,1202.31ZM1174.27,1111.69C1148.56,1151.7 1109.45,1182.3 1063.3,1197.12L1015.91,1020.26L1174.27,1111.69ZM887.767,1173.92C847.864,1148.1 817.392,1108.93 802.699,1062.75L979.269,1015.44L887.767,1173.92ZM1202.24,955.691C1205.36,969.968 1207,984.793 1207,1000C1207,1033.98 1198.79,1066.06 1184.26,1094.36L1025.91,1002.94L1202.24,955.691ZM974.092,996.116L797.571,1043.41C794.577,1029.41 793.002,1014.89 793.002,1000C793.002,965.728 801.349,933.39 816.119,904.91L974.092,996.116ZM984.092,978.796L826.175,887.622C851.934,847.881 890.948,817.514 936.935,802.801L984.092,978.796ZM956.257,797.641C970.36,794.602 984.995,793.002 1000,793.002C1034.04,793.002 1066.17,801.237 1094.52,815.822L1003.41,973.619L956.257,797.641ZM1301,887.274C1283.84,823.23 1241.94,768.625 1184.52,735.473L1059.52,951.979L1301,887.274ZM932.269,785.39C881.634,801.377 838.712,834.804 810.566,878.611L789.115,866.225C820.595,816.906 868.898,779.344 925.909,761.653L932.269,785.39ZM951.592,780.23L945.234,756.501C962.862,752.555 981.19,750.473 1000,750.473C1041.79,750.473 1081.19,760.747 1115.83,778.906L1103.53,800.214C1072.53,784.105 1037.32,775 1000,775C983.384,775 967.186,776.805 951.592,780.23Z"/>
        </g>
        <g id="Light-M" transform="matrix(0.184466,0,0,0.184466,968.059,904.364)">
            <path d="M800.513,895.9C784.218,927.037 775,962.45 775,1000C775,1016.5 776.78,1032.59 780.158,1048.08L755.93,1054.57L761.107,1073.89L785.29,1067.41C801.254,1118.24 834.786,1161.32 878.756,1189.53L866.34,1211.03L883.66,1221.03L896.054,1199.57C927.153,1215.81 962.512,1225 1000,1225C1016.7,1225 1032.98,1223.18 1048.65,1219.72L1055.05,1243.6L1074.36,1238.42L1067.96,1214.54C1118.76,1198.44 1161.78,1164.78 1189.88,1120.7L1211.51,1133.19L1221.51,1115.87L1199.87,1103.37C1215.92,1072.41 1225,1037.26 1225,1000C1225,983.183 1223.15,966.794 1219.64,951.026L1243.72,944.576C1247.83,962.55 1250,981.26 1250,1000.47C1250,1138.45 1137.98,1250.47 1000,1250.47C862.021,1250.47 750,1138.45 750,1000.47C750,958.225 760.502,918.411 779.037,883.501L800.513,895.9ZM1043.98,1202.31C1029.81,1205.38 1015.09,1207 1000,1207C965.79,1207 933.507,1198.68 905.064,1183.96L996.589,1025.43L1043.98,1202.31ZM1174.27,1111.69C1148.56,1151.7 1109.45,1182.3 1063.3,1197.12L1015.91,1020.26L1174.27,1111.69ZM887.767,1173.92C847.864,1148.1 817.392,1108.93 802.699,1062.75L979.269,1015.44L887.767,1173.92ZM1202.24,955.691C1205.36,969.968 1207,984.793 1207,1000C1207,1033.98 1198.79,1066.06 1184.26,1094.36L1025.91,1002.94L1202.24,955.691ZM974.092,996.116L797.571,1043.41C794.577,1029.41 793.002,1014.89 793.002,1000C793.002,965.728 801.349,933.39 816.119,904.91L974.092,996.116ZM984.092,978.796L826.175,887.622C851.934,847.881 890.948,817.514 936.935,802.801L984.092,978.796ZM956.257,797.641C970.36,794.602 984.995,793.002 1000,793.002C1034.04,793.002 1066.17,801.237 1094.52,815.822L1003.41,973.619L956.257,797.641ZM1301,887.274C1283.84,823.23 1241.94,768.625 1184.52,735.473L1059.52,951.979L1301,887.274ZM932.269,785.39C881.634,801.377 838.712,834.804 810.566,878.611L789.115,866.225C820.595,816.906 868.898,779.344 925.909,761.653L932.269,785.39ZM951.592,780.23L945.234,756.501C962.862,752.555 981.19,750.473 1000,750.473C1041.79,750.473 1081.19,760.747 1115.83,778.906L1103.53,800.214C1072.53,784.105 1037.32,775 1000,775C983.384,775 967.186,776.805 951.592,780.23Z"/>
        </g>
        <g id="Light-S" transform="matrix(0.145631,0,0,0.145631,1004.16,514.6)">
            <path d="M800.513,895.9C784.218,927.037 775,962.45 775,1000C775,1016.5 776.78,1032.59 780.158,1048.08L755.93,1054.57L761.107,1073.89L785.29,1067.41C801.254,1118.24 834.786,1161.32 878.756,1189.53L866.34,1211.03L883.66,1221.03L896.054,1199.57C927.153,1215.81 962.512,1225 1000,1225C1016.7,1225 1032.98,1223.18 1048.65,1219.72L1055.05,1243.6L1074.36,1238.42L1067.96,1214.54C1118.76,1198.44 1161.78,1164.78 1189.88,1120.7L1211.51,1133.19L1221.51,1115.87L1199.87,1103.37C1215.92,1072.41 1225,1037.26 1225,1000C1225,983.183 1223.15,966.794 1219.64,951.026L1243.72,944.576C1247.83,962.55 1250,981.26 1250,1000.47C1250,1138.45 1137.98,1250.47 1000,1250.47C862.021,1250.47 750,1138.45 750,1000.47C750,958.225 760.502,918.411 779.037,883.501L800.513,895.9ZM1043.98,1202.31C1029.81,1205.38 1015.09,1207 1000,1207C965.79,1207 933.507,1198.68 905.064,1183.96L996.589,1025.43L1043.98,1202.31ZM1174.27,1111.69C1148.56,1151.7 1109.45,1182.3 1063.3,1197.12L1015.91,1020.26L1174.27,1111.69ZM887.767,1173.92C847.864,1148.1 817.392,1108.93 802.699,1062.75L979.269,1015.44L887.767,1173.92ZM1202.24,955.691C1205.36,969.968 1207,984.793 1207,1000C1207,1033.98 1198.79,1066.06 1184.26,1094.36L1025.91,1002.94L1202.24,955.691ZM974.092,996.116L797.571,1043.41C794.577,1029.41 793.002,1014.89 793.002,1000C793.002,965.728 801.349,933.39 816.119,904.91L974.092,996.116ZM984.092,978.796L826.175,887.622C851.934,847.881 890.948,817.514 936.935,802.801L984.092,978.796ZM956.257,797.641C970.36,794.602 984.995,793.002 1000,793.002C1034.04,793.002 1066.17,801.237 1094.52,815.822L1003.41,973.619L956.257,797.641ZM1301,887.274C1283.84,823.23 1241.94,768.625 1184.52,735.473L1059.52,951.979L1301,887.274ZM932.269,785.39C881.634,801.377 838.712,834.804 810.566,878.611L789.115,866.225C820.595,816.906 868.898,779.344 925.909,761.653L932.269,785.39ZM951.592,780.23L945.234,756.501C962.862,752.555 981.19,750.473 1000,750.473C1041.79,750.473 1081.19,760.747 1115.83,778.906L1103.53,800.214C1072.53,784.105 1037.32,775 1000,775C983.384,775 967.186,776.805 951.592,780.23Z"/>
        </g>
        <g id="Regular-L" transform="matrix(0.246602,0,0,0.246602,1198.95,1274.41)">
            <path d="M800.513,895.9C784.218,927.037 775,962.45 775,1000C775,1016.5 776.78,1032.59 780.158,1048.08L755.93,1054.57L761.107,1073.89L785.29,1067.41C801.254,1118.24 834.786,1161.32 878.756,1189.53L866.34,1211.03L883.66,1221.03L896.054,1199.57C927.153,1215.81 962.512,1225 1000,1225C1016.7,1225 1032.98,1223.18 1048.65,1219.72L1055.05,1243.6L1074.36,1238.42L1067.96,1214.54C1118.76,1198.44 1161.78,1164.78 1189.88,1120.7L1211.51,1133.19L1221.51,1115.87L1199.87,1103.37C1215.92,1072.41 1225,1037.26 1225,1000C1225,983.183 1223.15,966.794 1219.64,951.026L1243.72,944.576C1247.83,962.55 1250,981.26 1250,1000.47C1250,1138.45 1137.98,1250.47 1000,1250.47C862.021,1250.47 750,1138.45 750,1000.47C750,958.225 760.502,918.411 779.037,883.501L800.513,895.9ZM1043.98,1202.31C1029.81,1205.38 1015.09,1207 1000,1207C965.79,1207 933.507,1198.68 905.064,1183.96L996.589,1025.43L1043.98,1202.31ZM1174.27,1111.69C1148.56,1151.7 1109.45,1182.3 1063.3,1197.12L1015.91,1020.26L1174.27,1111.69ZM887.767,1173.92C847.864,1148.1 817.392,1108.93 802.699,1062.75L979.269,1015.44L887.767,1173.92ZM1202.24,955.691C1205.36,969.968 1207,984.793 1207,1000C1207,1033.98 1198.79,1066.06 1184.26,1094.36L1025.91,1002.94L1202.24,955.691ZM974.092,996.116L797.571,1043.41C794.577,1029.41 793.002,1014.89 793.002,1000C793.002,965.728 801.349,933.39 816.119,904.91L974.092,996.116ZM984.092,978.796L826.175,887.622C851.934,847.881 890.948,817.514 936.935,802.801L984.092,978.796ZM956.257,797.641C970.36,794.602 984.995,793.002 1000,793.002C1034.04,793.002 1066.17,801.237 1094.52,815.822L1003.41,973.619L956.257,797.641ZM1301,887.274C1283.84,823.23 1241.94,768.625 1184.52,735.473L1059.52,951.979L1301,887.274ZM932.269,785.39C881.634,801.377 838.712,834.804 810.566,878.611L789.115,866.225C820.595,816.906 868.898,779.344 925.909,761.653L932.269,785.39ZM951.592,780.23L945.234,756.501C962.862,752.555 981.19,750.473 1000,750.473C1041.79,750.473 1081.19,760.747 1115.83,778.906L1103.53,800.214C1072.53,784.105 1037.32,775 1000,775C983.384,775 967.186,776.805 951.592,780.23Z"/>
        </g>
        <g id="Regular-M" transform="matrix(0.181488,0,0,0.181488,1265.28,911.466)">
            <path d="M800.513,895.9C784.218,927.037 775,962.45 775,1000C775,1016.5 776.78,1032.59 780.158,1048.08L755.93,1054.57L761.107,1073.89L785.29,1067.41C801.254,1118.24 834.786,1161.32 878.756,1189.53L866.34,1211.03L883.66,1221.03L896.054,1199.57C927.153,1215.81 962.512,1225 1000,1225C1016.7,1225 1032.98,1223.18 1048.65,1219.72L1055.05,1243.6L1074.36,1238.42L1067.96,1214.54C1118.76,1198.44 1161.78,1164.78 1189.88,1120.7L1211.51,1133.19L1221.51,1115.87L1199.87,1103.37C1215.92,1072.41 1225,1037.26 1225,1000C1225,983.183 1223.15,966.794 1219.64,951.026L1243.72,944.576C1247.83,962.55 1250,981.26 1250,1000.47C1250,1138.45 1137.98,1250.47 1000,1250.47C862.021,1250.47 750,1138.45 750,1000.47C750,958.225 760.502,918.411 779.037,883.501L800.513,895.9ZM1043.98,1202.31C1029.81,1205.38 1015.09,1207 1000,1207C965.79,1207 933.507,1198.68 905.064,1183.96L996.589,1025.43L1043.98,1202.31ZM1174.27,1111.69C1148.56,1151.7 1109.45,1182.3 1063.3,1197.12L1015.91,1020.26L1174.27,1111.69ZM887.767,1173.92C847.864,1148.1 817.392,1108.93 802.699,1062.75L979.269,1015.44L887.767,1173.92ZM1202.24,955.691C1205.36,969.968 1207,984.793 1207,1000C1207,1033.98 1198.79,1066.06 1184.26,1094.36L1025.91,1002.94L1202.24,955.691ZM974.092,996.116L797.571,1043.41C794.577,1029.41 793.002,1014.89 793.002,1000C793.002,965.728 801.349,933.39 816.119,904.91L974.092,996.116ZM984.092,978.796L826.175,887.622C851.934,847.881 890.948,817.514 936.935,802.801L984.092,978.796ZM956.257,797.641C970.36,794.602 984.995,793.002 1000,793.002C1034.04,793.002 1066.17,801.237 1094.52,815.822L1003.41,973.619L956.257,797.641ZM1301,887.274C1283.84,823.23 1241.94,768.625 1184.52,735.473L1059.52,951.979L1301,887.274ZM932.269,785.39C881.634,801.377 838.712,834.804 810.566,878.611L789.115,866.225C820.595,816.906 868.898,779.344 925.909,761.653L932.269,785.39ZM951.592,780.23L945.234,756.501C962.862,752.555 981.19,750.473 1000,750.473C1041.79,750.473 1081.19,760.747 1115.83,778.906L1103.53,800.214C1072.53,784.105 1037.32,775 1000,775C983.384,775 967.186,776.805 951.592,780.23Z"/>
        </g>
        <g id="Regular-S" transform="matrix(0.153398,0,0,0.153398,1292.54,507.887)">
            <path d="M800.513,895.9C784.218,927.037 775,962.45 775,1000C775,1016.5 776.78,1032.59 780.158,1048.08L755.93,1054.57L761.107,1073.89L785.29,1067.41C801.254,1118.24 834.786,1161.32 878.756,1189.53L866.34,1211.03L883.66,1221.03L896.054,1199.57C927.153,1215.81 962.512,1225 1000,1225C1016.7,1225 1032.98,1223.18 1048.65,1219.72L1055.05,1243.6L1074.36,1238.42L1067.96,1214.54C1118.76,1198.44 1161.78,1164.78 1189.88,1120.7L1211.51,1133.19L1221.51,1115.87L1199.87,1103.37C1215.92,1072.41 1225,1037.26 1225,1000C1225,983.183 1223.15,966.794 1219.64,951.026L1243.72,944.576C1247.83,962.55 1250,981.26 1250,1000.47C1250,1138.45 1137.98,1250.47 1000,1250.47C862.021,1250.47 750,1138.45 750,1000.47C750,958.225 760.502,918.411 779.037,883.501L800.513,895.9ZM1043.98,1202.31C1029.81,1205.38 1015.09,1207 1000,1207C965.79,1207 933.507,1198.68 905.064,1183.96L996.589,1025.43L1043.98,1202.31ZM1174.27,1111.69C1148.56,1151.7 1109.45,1182.3 1063.3,1197.12L1015.91,1020.26L1174.27,1111.69ZM887.767,1173.92C847.864,1148.1 817.392,1108.93 802.699,1062.75L979.269,1015.44L887.767,1173.92ZM1202.24,955.691C1205.36,969.968 1207,984.793 1207,1000C1207,1033.98 1198.79,1066.06 1184.26,1094.36L1025.91,1002.94L1202.24,955.691ZM974.092,996.116L797.571,1043.41C794.577,1029.41 793.002,1014.89 793.002,1000C793.002,965.728 801.349,933.39 816.119,904.91L974.092,996.116ZM984.092,978.796L826.175,887.622C851.934,847.881 890.948,817.514 936.935,802.801L984.092,978.796ZM956.257,797.641C970.36,794.602 984.995,793.002 1000,793.002C1034.04,793.002 1066.17,801.237 1094.52,815.822L1003.41,973.619L956.257,797.641ZM1301,887.274C1283.84,823.23 1241.94,768.625 1184.52,735.473L1059.52,951.979L1301,887.274ZM932.269,785.39C881.634,801.377 838.712,834.804 810.566,878.611L789.115,866.225C820.595,816.906 868.898,779.344 925.909,761.653L932.269,785.39ZM951.592,780.23L945.234,756.501C962.862,752.555 981.19,750.473 1000,750.473C1041.79,750.473 1081.19,760.747 1115.83,778.906L1103.53,800.214C1072.53,784.105 1037.32,775 1000,775C983.384,775 967.186,776.805 951.592,780.23Z"/>
        </g>
    </g>
</svg>
